<svg width="71" height="37" viewBox="0 0 71 37" fill="none" xmlns="http://www.w3.org/2000/svg">
<path d="M11.8587 0C13.2793 0 14.5022 0.591855 14.774 1.4099L14.9592 2.3125H66.9275C69.4351 2.3125 71.4363 3.77588 70.7321 5.25082L64.0616 19.1287C63.5799 20.126 62.0234 20.8125 60.257 20.8125H21.0862L22.2227 24.2813H60.2817C61.9246 24.2813 63.2463 25.0545 63.2463 26.0156C63.2463 26.9768 61.9246 27.75 60.2817 27.75H19.6533C18.3439 27.75 17.121 27.1574 16.8492 26.3408L9.40542 3.46875H2.96467C1.32793 3.46875 0 2.69189 0 1.73438C0 0.776855 1.32793 0 2.96467 0H11.8587ZM15.8116 33.5313C15.8116 31.6162 18.4674 30.0625 21.7409 30.0625C25.0144 30.0625 27.6703 31.6162 27.6703 33.5313C27.6703 35.4463 25.0144 37 21.7409 37C18.4674 37 15.8116 35.4463 15.8116 33.5313ZM63.2463 33.5313C63.2463 35.4463 60.5905 37 57.317 37C54.0435 37 51.3877 35.4463 51.3877 33.5313C51.3877 31.6162 54.0435 30.0625 57.317 30.0625C60.5905 30.0625 63.2463 31.6162 63.2463 33.5313Z" fill="#E8E7E5"/>
</svg>
