<svg width="50" height="33" viewBox="0 0 50 33" fill="none" xmlns="http://www.w3.org/2000/svg">
<path d="M8.36593 0C9.3681 0 10.2308 0.527871 10.4226 1.25748L10.5533 2.0625H47.2152C48.9843 2.0625 50.396 3.36768 49.8993 4.68316L45.1935 17.0607C44.8536 17.9502 43.7556 18.5625 42.5094 18.5625H14.8757L15.6774 21.6563H42.5268C43.6859 21.6563 44.6183 22.3459 44.6183 23.2031C44.6183 24.0604 43.6859 24.75 42.5268 24.75H13.8648C12.9411 24.75 12.0783 24.2215 11.8866 23.4932L6.63523 3.09375H2.09148C0.936811 3.09375 0 2.40088 0 1.54688C0 0.692871 0.936811 0 2.09148 0H8.36593ZM11.1546 29.9063C11.1546 28.1982 13.0282 26.8125 15.3375 26.8125C17.6469 26.8125 19.5205 28.1982 19.5205 29.9063C19.5205 31.6143 17.6469 33 15.3375 33C13.0282 33 11.1546 31.6143 11.1546 29.9063ZM44.6183 29.9063C44.6183 31.6143 42.7447 33 40.4353 33C38.126 33 36.2524 31.6143 36.2524 29.9063C36.2524 28.1982 38.126 26.8125 40.4353 26.8125C42.7447 26.8125 44.6183 28.1982 44.6183 29.9063Z" fill="#E8E7E5"/>
</svg>
