<svg width="40" height="40" viewBox="0 0 40 40" fill="none" xmlns="http://www.w3.org/2000/svg">
<path d="M36.0417 40H3.95833C1.79167 40 0 37.7368 0 35V5C0 2.26316 1.79167 0 3.95833 0H36.0417C38.2083 0 40 2.26316 40 5V35C40 37.7368 38.2083 40 36.0417 40ZM3.95833 2.10526C2.70833 2.10526 1.66667 3.42105 1.66667 5V35C1.66667 36.5789 2.70833 37.8947 3.95833 37.8947H36.0417C37.2917 37.8947 38.3333 36.5789 38.3333 35V5C38.3333 3.42105 37.2917 2.10526 36.0417 2.10526H3.95833V2.10526Z" fill="#282828"/>
<path d="M20 26.5263C19.7917 26.5263 19.5833 26.4211 19.4167 26.2106L6.25 9.57898C5.91667 9.15792 5.91667 8.52634 6.25 8.10529C6.58333 7.68424 7.08333 7.68424 7.41667 8.10529L20 23.9474L32.8333 7.73687C33.1667 7.31582 33.6667 7.31582 34 7.73687C34.3333 8.15792 34.3333 8.7895 34 9.21055L20.5833 26.2106C20.4167 26.4211 20.2083 26.5263 20 26.5263Z" fill="#282828"/>
<path d="M6.95833 31.8421C6.75 31.8421 6.54167 31.7368 6.375 31.5263C6.04167 31.1053 6.04167 30.4737 6.375 30.0526L15 19.1579C15.3333 18.7368 15.8333 18.7368 16.1667 19.1579C16.5 19.5789 16.5 20.2105 16.1667 20.6316L7.58333 31.5263C7.41666 31.7368 7.16666 31.8421 6.95833 31.8421Z" fill="#282828"/>
<path d="M33.4583 31.8421C33.25 31.8421 33.0417 31.7368 32.875 31.5263L24.25 20.6316C23.9167 20.2105 23.9167 19.5789 24.25 19.1579C24.5833 18.7368 25.0833 18.7368 25.4167 19.1579L34.0417 30.0526C34.375 30.4737 34.375 31.1053 34.0417 31.5263C33.875 31.7368 33.6667 31.8421 33.4583 31.8421Z" fill="#282828"/>
</svg>
