<svg width="40" height="41" viewBox="0 0 40 41" fill="none" xmlns="http://www.w3.org/2000/svg">
<g clip-path="url(#clip0_20_93)">
<path d="M39.1722 29.786L33.1794 23.7951C32.6468 23.2612 31.9376 22.9675 31.1832 22.9675C31.1832 22.9675 31.1818 22.9675 31.1804 22.9675C30.426 22.9675 29.7168 23.2626 29.1842 23.7951L25.189 27.789L13.202 15.8058L17.1972 11.8119C18.2991 10.7103 18.2991 8.9167 17.1958 7.81512L11.2016 1.82423C10.669 1.2918 9.9598 0.998047 9.20541 0.998047H9.20399C8.44818 0.998047 7.73899 1.29321 7.2064 1.82706L1.21219 7.81936C1.02995 8.00013 -0.549484 9.70899 0.200675 13.4642C1.08504 17.8833 4.78639 23.377 11.2016 29.7902C20.3829 38.9686 26.1737 40.9995 29.5007 40.9995C31.8034 40.9995 32.9279 40.0264 33.1794 39.775L39.1722 33.7841C39.7062 33.2503 40.0015 32.5399 40.0001 31.7843C40.0001 31.0302 39.7062 30.3198 39.1722 29.786ZM31.1818 37.7766C31.1423 37.8162 26.3658 40.9529 13.1992 27.7918C-0.251398 14.3469 3.21544 9.81491 3.20979 9.81632L9.20399 3.82261L15.1982 9.81632L10.2042 14.8087C9.65183 15.3609 9.65183 16.2535 10.2042 16.8057L24.1888 30.7858C24.7412 31.3381 25.634 31.3381 26.1864 30.7858L31.1804 25.792L37.1746 31.7857L31.1818 37.7766Z" fill="black"/>
</g>
<defs>
<clipPath id="clip0_20_93">
<rect width="40" height="40" fill="white" transform="translate(0 0.998047)"/>
</clipPath>
</defs>
</svg>
