<svg width="40" height="41" viewBox="0 0 40 41" fill="none" xmlns="http://www.w3.org/2000/svg">
<g clip-path="url(#clip0_20_47)">
<path d="M20 37.5856C29.161 37.5856 36.5875 30.1591 36.5875 20.9981C36.5875 11.837 29.161 4.41055 20 4.41055C10.839 4.41055 3.41248 11.837 3.41248 20.9981C3.41248 30.1591 10.839 37.5856 20 37.5856Z" fill="#EFF2FA"/>
<path d="M20 1.64603C9.31209 1.64603 0.647949 10.3102 0.647949 20.9981C0.647949 31.6859 9.31217 40.3501 20 40.3501C30.6878 40.3501 39.352 31.6859 39.352 20.9981C39.352 10.3102 30.6879 1.64603 20 1.64603ZM20 37.5856C10.839 37.5856 3.41248 30.1591 3.41248 20.9981C3.41248 11.837 10.839 4.41056 20 4.41056C29.161 4.41056 36.5875 11.837 36.5875 20.9981C36.5875 30.1591 29.161 37.5856 20 37.5856Z" fill="#FF6464"/>
<path d="M20 4.41055C10.839 4.41055 3.41248 11.837 3.41248 20.9981C3.41248 30.1591 10.839 37.5856 20 37.5856C29.161 37.5856 36.5875 30.1591 36.5875 20.9981C36.5875 11.837 29.161 4.41055 20 4.41055ZM20 35.6849C11.8887 35.6849 5.31318 29.1093 5.31318 20.9981C5.31318 12.8868 11.8887 6.31126 20 6.31126C28.1112 6.31126 34.6868 12.8868 34.6868 20.9981C34.6868 29.1093 28.1112 35.6849 20 35.6849Z" fill="#C7CFE2"/>
<path d="M34.1421 6.85594C30.3647 3.07836 25.3422 0.998047 20 0.998047C14.6578 0.998047 9.63531 3.07836 5.85789 6.85594C2.08047 10.6335 0 15.6559 0 20.998C0 26.3402 2.08031 31.3627 5.85789 35.1402C9.63547 38.9176 14.6578 40.998 20 40.998C25.3422 40.998 30.3647 38.9177 34.1421 35.1402C37.9195 31.3626 40 26.3402 40 20.998C40 15.6559 37.9197 10.6334 34.1421 6.85594ZM33.2259 34.2239C29.693 37.7566 24.9961 39.7022 20 39.7022C15.0039 39.7022 10.307 37.7566 6.77414 34.2239C3.24148 30.6911 1.29586 25.9941 1.29586 20.998C1.29586 16.002 3.24148 11.305 6.77414 7.77219C10.307 4.23953 15.004 2.29391 20 2.29391C24.996 2.29391 29.693 4.23945 33.2259 7.77219C36.7586 11.305 38.7041 16.002 38.7041 20.998C38.7041 25.9941 36.7585 30.6911 33.2259 34.2239Z" fill="black"/>
<path d="M20 3.76266C10.4963 3.76266 2.76459 11.4944 2.76459 20.9981C2.76459 30.5017 10.4963 38.2334 20 38.2334C29.5037 38.2334 37.2354 30.5017 37.2354 20.9981C37.2354 11.4944 29.5037 3.76266 20 3.76266ZM20 36.9376C11.2108 36.9376 4.06045 29.7872 4.06045 20.9981C4.06045 12.2089 11.2108 5.05852 20 5.05852C28.7891 5.05852 35.9395 12.2089 35.9395 20.9981C35.9395 29.7872 28.7891 36.9376 20 36.9376Z" fill="black"/>
<path d="M8.89849 20.998C8.89849 20.6402 8.60841 20.3501 8.25052 20.3501H6.17708C5.81927 20.3501 5.52911 20.6401 5.52911 20.998C5.52911 21.3559 5.81919 21.646 6.17708 21.646H8.25052C8.60833 21.646 8.89849 21.3558 8.89849 20.998Z" fill="black"/>
<path d="M33.8229 20.3501H31.7495C31.3917 20.3501 31.1015 20.6401 31.1015 20.998C31.1015 21.3559 31.3916 21.646 31.7495 21.646H33.8229C34.1807 21.646 34.4709 21.3559 34.4709 20.998C34.4709 20.6401 34.1807 20.3501 33.8229 20.3501Z" fill="black"/>
<path d="M20 9.89657C20.3578 9.89657 20.648 9.60649 20.648 9.2486V7.17516C20.648 6.81735 20.3579 6.52719 20 6.52719C19.6421 6.52719 19.3521 6.81727 19.3521 7.17516V9.2486C19.3521 9.60641 19.6422 9.89657 20 9.89657Z" fill="black"/>
<path d="M20 32.0995C19.6422 32.0995 19.3521 32.3896 19.3521 32.7475V34.8209C19.3521 35.1787 19.6421 35.4689 20 35.4689C20.3579 35.4689 20.648 35.1788 20.648 34.8209V32.7475C20.648 32.3897 20.3578 32.0995 20 32.0995Z" fill="black"/>
<path d="M13.7581 31.8094C13.4481 31.6303 13.052 31.7367 12.8731 32.0465L12.5275 32.645C12.3486 32.9549 12.4548 33.3512 12.7647 33.5301C12.8667 33.589 12.9781 33.617 13.0881 33.617C13.312 33.617 13.5298 33.5007 13.6498 33.2929L13.9953 32.6944C14.1742 32.3845 14.068 31.9882 13.7581 31.8094Z" fill="black"/>
<path d="M26.2419 10.1867C26.3439 10.2456 26.4554 10.2736 26.5652 10.2736C26.7892 10.2736 27.007 10.1573 27.127 9.94953L27.4725 9.35102C27.6514 9.04109 27.5452 8.64484 27.2353 8.46594C26.9253 8.28695 26.5292 8.3932 26.3502 8.70313L26.0047 9.30164C25.8259 9.61164 25.932 10.0079 26.2419 10.1867Z" fill="black"/>
<path d="M8.95154 13.871L8.35303 13.5255C8.0431 13.3464 7.64685 13.4527 7.46795 13.7626C7.28904 14.0726 7.39521 14.4688 7.70514 14.6477L8.30365 14.9933C8.40568 15.0522 8.51717 15.0801 8.62701 15.0801C8.85092 15.0801 9.06873 14.9639 9.18873 14.7561C9.36764 14.4462 9.26146 14.05 8.95154 13.871Z" fill="black"/>
<path d="M32.2949 27.3483L31.6964 27.0028C31.3865 26.8239 30.9902 26.9301 30.8113 27.24C30.6324 27.5499 30.7386 27.9462 31.0484 28.1251L31.647 28.4706C31.749 28.5295 31.8605 28.5575 31.9703 28.5575C32.1942 28.5575 32.412 28.4412 32.532 28.2334C32.711 27.9236 32.6048 27.5273 32.2949 27.3483Z" fill="black"/>
<path d="M27.127 32.0465C26.9481 31.7365 26.5518 31.6303 26.2419 31.8094C25.932 31.9883 25.8258 32.3846 26.0048 32.6944L26.3503 33.293C26.4703 33.5008 26.6881 33.617 26.912 33.617C27.0219 33.617 27.1333 33.5891 27.2354 33.5301C27.5453 33.3512 27.6515 32.9549 27.4726 32.6451L27.127 32.0465Z" fill="black"/>
<path d="M12.8729 9.94961C12.9929 10.1575 13.2108 10.2737 13.4347 10.2737C13.5446 10.2737 13.656 10.2457 13.758 10.1868C14.0679 10.0079 14.1741 9.61156 13.9952 9.30172L13.6497 8.7032C13.4708 8.3932 13.0744 8.28703 12.7646 8.46602C12.4547 8.64492 12.3485 9.04125 12.5274 9.35109L12.8729 9.94961Z" fill="black"/>
<path d="M31.373 15.0802C31.483 15.0802 31.5944 15.0523 31.6964 14.9934L32.2949 14.6478C32.6048 14.4689 32.711 14.0726 32.532 13.7627C32.3531 13.4527 31.9568 13.3466 31.6469 13.5256L31.0484 13.8711C30.7385 14.05 30.6323 14.4463 30.8113 14.7562C30.9313 14.964 31.1491 15.0802 31.373 15.0802Z" fill="black"/>
<path d="M8.30359 27.0028L7.70507 27.3484C7.39515 27.5273 7.28898 27.9236 7.46789 28.2334C7.58789 28.4413 7.8057 28.5575 8.02961 28.5575C8.13953 28.5575 8.25093 28.5295 8.35297 28.4706L8.95148 28.1251C9.2614 27.9462 9.36757 27.5498 9.18867 27.24C9.00984 26.93 8.61351 26.8239 8.30359 27.0028Z" fill="black"/>
<path d="M27.6025 23.1147H26.8682V15.4689C26.8682 15.1111 26.5781 14.8209 26.2202 14.8209C25.8623 14.8209 25.5722 15.111 25.5722 15.4689V23.1147H21.59L24.0703 15.6738C24.1835 15.3343 24 14.9674 23.6604 14.8542C23.3209 14.7411 22.9541 14.9245 22.8408 15.2641L20.0762 23.5578C20.0104 23.7554 20.0435 23.9726 20.1653 24.1416C20.2871 24.3105 20.4827 24.4107 20.6909 24.4107H25.5722V26.5273C25.5722 26.8851 25.8623 27.1753 26.2202 27.1753C26.5781 27.1753 26.8682 26.8852 26.8682 26.5273V24.4105H27.6025C27.9604 24.4105 28.2505 24.1205 28.2505 23.7626C28.2505 23.4047 27.9604 23.1147 27.6025 23.1147Z" fill="black"/>
<path d="M15.7012 23.491C17.2892 22.7007 19.2657 21.7171 19.2657 18.9246C19.2657 16.6619 17.5798 14.8209 15.5076 14.8209C13.4353 14.8209 11.7495 16.6619 11.7495 18.9246C11.7495 19.2824 12.0395 19.5726 12.3974 19.5726C12.7552 19.5726 13.0454 19.2825 13.0454 18.9246C13.0454 17.3765 14.1499 16.1168 15.5076 16.1168C16.8652 16.1168 17.9698 17.3764 17.9698 18.9246C17.9698 20.9145 16.6509 21.5708 15.1238 22.3308C13.5421 23.118 11.7495 24.0101 11.7495 26.5272C11.7495 26.8851 12.0395 27.1752 12.3974 27.1752H18.6177C18.9755 27.1752 19.2657 26.8851 19.2657 26.5272C19.2657 26.1694 18.9756 25.8793 18.6177 25.8793H13.108C13.3516 24.7208 14.2934 24.1915 15.7012 23.491Z" fill="black"/>
</g>
<defs>
<clipPath id="clip0_20_47">
<rect width="40" height="40" fill="white" transform="translate(0 0.998047)"/>
</clipPath>
</defs>
</svg>
