<?xml version="1.0" encoding="iso-8859-1"?>
<!-- Generator: Adobe Illustrator 19.0.0, SVG Export Plug-In . SVG Version: 6.00 Build 0)  -->
<svg version="1.1" id="Layer_1" xmlns="http://www.w3.org/2000/svg" xmlns:xlink="http://www.w3.org/1999/xlink" x="0px" y="0px"
	 viewBox="0 0 512 512" style="enable-background:new 0 0 512 512;" xml:space="preserve">
<circle style="fill:#EFF2FA;" cx="256" cy="256" r="212.32"/>
<path style="fill:#FF6464;" d="M256,8.294C119.195,8.294,8.294,119.195,8.294,256c0,136.804,110.902,247.706,247.706,247.706
	S503.706,392.804,503.706,256C503.706,119.195,392.805,8.294,256,8.294z M256,468.32c-117.261,0-212.32-95.058-212.32-212.32
	S138.739,43.68,256,43.68S468.32,138.739,468.32,256S373.261,468.32,256,468.32z"/>
<path style="fill:#C7CFE2;" d="M256,43.68C138.739,43.68,43.68,138.739,43.68,256S138.739,468.32,256,468.32
	S468.32,373.261,468.32,256S373.261,43.68,256,43.68z M256,443.991c-103.824,0-187.991-84.167-187.991-187.991
	S152.176,68.009,256,68.009S443.991,152.176,443.991,256S359.824,443.991,256,443.991z"/>
<path d="M437.019,74.981C388.668,26.628,324.38,0,256,0S123.332,26.628,74.981,74.981S0,187.62,0,256s26.628,132.668,74.981,181.019
	S187.62,512,256,512s132.668-26.628,181.019-74.981S512,324.38,512,256S485.372,123.332,437.019,74.981z M425.291,425.291
	c-45.22,45.219-105.341,70.122-169.291,70.122s-124.071-24.903-169.291-70.122C41.491,380.071,16.587,319.949,16.587,256
	S41.491,131.929,86.709,86.709C131.929,41.491,192.051,16.587,256,16.587s124.071,24.903,169.291,70.122
	c45.219,45.22,70.122,105.342,70.122,169.291S470.509,380.071,425.291,425.291z"/>
<path d="M256,35.387C134.353,35.387,35.387,134.353,35.387,256S134.353,476.613,256,476.613S476.613,377.647,476.613,256
	S377.647,35.387,256,35.387z M256,460.026c-112.501,0-204.026-91.525-204.026-204.026S143.499,51.974,256,51.974
	S460.026,143.499,460.026,256S368.501,460.026,256,460.026z"/>
<path d="M113.901,256c0-4.58-3.713-8.294-8.294-8.294h-26.54c-4.58,0-8.294,3.713-8.294,8.294s3.713,8.294,8.294,8.294h26.54
	C110.187,264.294,113.901,260.58,113.901,256z"/>
<path d="M432.933,247.706h-26.54c-4.58,0-8.294,3.713-8.294,8.294s3.713,8.294,8.294,8.294h26.54c4.58,0,8.294-3.713,8.294-8.294
	S437.513,247.706,432.933,247.706z"/>
<path d="M256,113.901c4.58,0,8.294-3.713,8.294-8.294v-26.54c0-4.58-3.713-8.294-8.294-8.294s-8.294,3.713-8.294,8.294v26.54
	C247.706,110.187,251.42,113.901,256,113.901z"/>
<path d="M256,398.099c-4.58,0-8.294,3.713-8.294,8.294v26.54c0,4.58,3.713,8.294,8.294,8.294s8.294-3.713,8.294-8.294v-26.54
	C264.294,401.813,260.58,398.099,256,398.099z"/>
<path d="M176.104,394.385c-3.968-2.292-9.039-0.931-11.329,3.035l-4.423,7.661c-2.29,3.967-0.931,9.039,3.036,11.329
	c1.306,0.754,2.732,1.112,4.139,1.112c2.866,0,5.654-1.488,7.19-4.148l4.423-7.661C181.429,401.746,180.07,396.674,176.104,394.385z
	"/>
<path d="M335.896,117.615c1.306,0.754,2.733,1.112,4.139,1.112c2.866,0,5.654-1.488,7.19-4.148l4.423-7.661
	c2.29-3.967,0.931-9.039-3.036-11.329c-3.968-2.291-9.039-0.931-11.329,3.036l-4.423,7.661
	C330.571,110.254,331.93,115.326,335.896,117.615z"/>
<path d="M114.58,164.774l-7.661-4.423c-3.967-2.292-9.039-0.931-11.329,3.036s-0.931,9.039,3.036,11.329l7.661,4.423
	c1.306,0.754,2.733,1.112,4.139,1.112c2.866,0,5.654-1.488,7.19-4.148C119.906,172.137,118.547,167.065,114.58,164.774z"/>
<path d="M413.375,337.284l-7.661-4.423c-3.967-2.29-9.039-0.931-11.329,3.036c-2.29,3.967-0.931,9.039,3.035,11.329l7.661,4.423
	c1.306,0.754,2.733,1.112,4.139,1.112c2.866,0,5.654-1.488,7.19-4.148C418.701,344.647,417.342,339.574,413.375,337.284z"/>
<path d="M347.226,397.42c-2.29-3.968-7.363-5.327-11.329-3.035c-3.967,2.29-5.326,7.363-3.036,11.329l4.423,7.661
	c1.536,2.661,4.324,4.148,7.19,4.148c1.407,0,2.833-0.358,4.139-1.112c3.967-2.29,5.326-7.363,3.036-11.329L347.226,397.42z"/>
<path d="M164.774,114.58c1.536,2.661,4.324,4.148,7.19,4.148c1.407,0,2.833-0.358,4.139-1.112c3.967-2.29,5.326-7.363,3.036-11.329
	l-4.423-7.661c-2.29-3.968-7.363-5.327-11.329-3.036c-3.967,2.29-5.326,7.363-3.036,11.329L164.774,114.58z"/>
<path d="M401.575,180.252c1.407,0,2.833-0.358,4.139-1.112l7.661-4.423c3.967-2.29,5.326-7.363,3.035-11.329
	c-2.29-3.968-7.363-5.327-11.329-3.036l-7.661,4.423c-3.967,2.29-5.326,7.363-3.035,11.329
	C395.921,178.764,398.709,180.252,401.575,180.252z"/>
<path d="M106.286,332.861l-7.661,4.423c-3.967,2.29-5.326,7.363-3.036,11.329c1.536,2.661,4.324,4.148,7.19,4.148
	c1.407,0,2.833-0.358,4.139-1.112l7.661-4.423c3.967-2.29,5.326-7.363,3.036-11.329
	C115.326,331.929,110.253,330.571,106.286,332.861z"/>
<path d="M353.313,283.093h-9.4v-97.866c0-4.58-3.713-8.294-8.294-8.294s-8.294,3.713-8.294,8.294v97.866h-50.972l31.747-95.243
	c1.449-4.346-0.9-9.042-5.246-10.491c-4.346-1.448-9.041,0.9-10.491,5.246l-35.387,106.16c-0.843,2.529-0.419,5.309,1.14,7.472
	c1.559,2.163,4.063,3.445,6.728,3.445h62.481v27.093c0,4.58,3.713,8.294,8.294,8.294s8.294-3.713,8.294-8.294V299.68h9.4
	c4.58,0,8.294-3.713,8.294-8.294S357.894,283.093,353.313,283.093z"/>
<path d="M200.975,287.91c20.327-10.116,45.626-22.706,45.626-58.45c0-28.963-21.579-52.527-48.104-52.527
	s-48.104,23.564-48.104,52.527c0,4.58,3.713,8.294,8.294,8.294c4.58,0,8.294-3.713,8.294-8.294c0-19.816,14.138-35.94,31.516-35.94
	s31.516,16.123,31.516,35.94c0,25.471-16.882,33.872-36.428,43.6c-20.246,10.075-43.192,21.495-43.192,53.714
	c0,4.58,3.713,8.294,8.294,8.294h79.62c4.58,0,8.294-3.713,8.294-8.294s-3.713-8.294-8.294-8.294h-70.524
	C170.9,303.652,182.955,296.877,200.975,287.91z"/>
<g>
</g>
<g>
</g>
<g>
</g>
<g>
</g>
<g>
</g>
<g>
</g>
<g>
</g>
<g>
</g>
<g>
</g>
<g>
</g>
<g>
</g>
<g>
</g>
<g>
</g>
<g>
</g>
<g>
</g>
</svg>
