<svg xmlns="http://www.w3.org/2000/svg" width="48" height="42.394" viewBox="0 0 48 42.394">
  <g>
    <path d="M47.554,24.874a78.152,78.152,0,0,0-10.819-3.826l1.584-.775a1.742,1.742,0,0,0,.6-2.639l-1.45-1.842a.285.285,0,0,1,0-.352L38.922,13.6a1.741,1.741,0,0,0-.6-2.637l-2.1-1.031a.282.282,0,0,1-.152-.318l.5-2.289A1.741,1.741,0,0,0,34.88,5.206L32.537,5.19a.284.284,0,0,1-.275-.221l-.537-2.281a1.741,1.741,0,0,0-2.437-1.174l-2.119,1a.285.285,0,0,1-.344-.08L25.351.616a1.793,1.793,0,0,0-2.7,0L21.17,2.438a.284.284,0,0,1-.343.08l-2.118-1a1.741,1.741,0,0,0-2.438,1.174l-.537,2.281a.285.285,0,0,1-.275.221l-2.343.016a1.739,1.739,0,0,0-1.687,2.115l.506,2.287a.288.288,0,0,1-.153.32l-2.1,1.031a1.739,1.739,0,0,0-.6,2.637l1.448,1.842a.284.284,0,0,1,0,.354L9.076,17.634a1.74,1.74,0,0,0,.6,2.639l1.566.768a78.786,78.786,0,0,0-10.8,3.834.726.726,0,0,0-.1,1.283C2.373,27.439,5.8,30.1,6.89,30.947c-.271,1.5-1.146,6.4-1.26,7.678a.729.729,0,0,0,1,.74,46.9,46.9,0,0,1,34.748,0,.738.738,0,0,0,.271.053.727.727,0,0,0,.725-.793c-.114-1.273-.989-6.174-1.261-7.678,1.089-.852,4.518-3.508,6.551-4.789a.725.725,0,0,0-.106-1.284ZM10.315,18.966a.283.283,0,0,1-.153-.193.276.276,0,0,1,.054-.238l1.449-1.844a1.739,1.739,0,0,0,0-2.15L10.216,12.7a.28.28,0,0,1-.054-.24.283.283,0,0,1,.153-.193l2.1-1.031A1.736,1.736,0,0,0,13.353,9.3l-.506-2.289a.284.284,0,0,1,.277-.345l2.342-.018a1.734,1.734,0,0,0,1.683-1.34l.537-2.281a.279.279,0,0,1,.153-.191.287.287,0,0,1,.248,0l2.118,1a1.733,1.733,0,0,0,2.1-.48l1.474-1.82c.148-.184.293-.186.444,0l1.474,1.822a1.737,1.737,0,0,0,2.1.479l2.119-1a.28.28,0,0,1,.246,0,.276.276,0,0,1,.153.191l.538,2.281a1.734,1.734,0,0,0,1.682,1.34l2.344.018a.286.286,0,0,1,.277.347L34.642,9.3a1.736,1.736,0,0,0,.933,1.938l2.1,1.031a.288.288,0,0,1,.152.193.28.28,0,0,1-.054.24l-1.449,1.842a1.735,1.735,0,0,0,0,2.15l1.449,1.842a.288.288,0,0,1,.054.24.283.283,0,0,1-.152.193L35.575,20a1.736,1.736,0,0,0-.933,1.938l.506,2.289a.285.285,0,0,1-.056.24.29.29,0,0,1-.221.107l-2.344.016a1.734,1.734,0,0,0-1.681,1.34l-.539,2.281a.286.286,0,0,1-.4.193l-2.119-1a1.733,1.733,0,0,0-2.1.479L24.219,29.7c-.151.186-.3.182-.444,0L22.3,27.879a1.736,1.736,0,0,0-2.1-.478l-2.118,1a.287.287,0,0,1-.4-.193l-.537-2.281a1.737,1.737,0,0,0-1.683-1.34l-2.342-.016a.289.289,0,0,1-.222-.107.286.286,0,0,1-.055-.24l.506-2.289A1.738,1.738,0,0,0,12.419,20ZM39.861,30.075a.735.735,0,0,0-.265.7c.011.055.809,4.441,1.164,6.793a48.356,48.356,0,0,0-33.527,0c.356-2.354,1.153-6.74,1.164-6.795a.732.732,0,0,0-.265-.7c-.158-.125-3.385-2.676-5.874-4.389a72.848,72.848,0,0,1,9.5-3.27l-.33,1.492a1.738,1.738,0,0,0,1.687,2.115l2.343.018a.281.281,0,0,1,.275.219l.537,2.281a1.741,1.741,0,0,0,2.438,1.174l2.118-1a.283.283,0,0,1,.344.078l1.475,1.822a1.741,1.741,0,0,0,2.7,0l1.474-1.822a.281.281,0,0,1,.344-.078l2.119,1a1.737,1.737,0,0,0,2.436-1.174l.539-2.281a.281.281,0,0,1,.275-.219l2.344-.018a1.741,1.741,0,0,0,1.687-2.115l-.327-1.48a72.75,72.75,0,0,1,9.5,3.258C43.247,27.4,40.019,29.95,39.861,30.075Z" fill="#1a171b"/>
    <path d="M36.125,40.962a48.391,48.391,0,0,0-24.244,0,.728.728,0,0,0,.182,1.432.765.765,0,0,0,.183-.023,46.83,46.83,0,0,1,23.515,0,.728.728,0,1,0,.364-1.409Z" fill="#1a171b"/>
    <path d="M17.209,21.19a.719.719,0,0,0,.514-.213L29.359,9.34a.727.727,0,0,0-1.028-1.027L16.7,19.95a.727.727,0,0,0,.514,1.24Z" fill="#1a171b"/>
    <path d="M23.482,20.919a.728.728,0,0,0,0,1.029.727.727,0,0,0,1.028,0l5.818-5.818A.727.727,0,1,0,29.3,15.1Z" fill="#1a171b"/>
  </g>
</svg>
