<svg width="72" height="37" viewBox="0 0 72 37" fill="none" xmlns="http://www.w3.org/2000/svg">
<path d="M12.5719 0C13.9925 0 15.2154 0.591855 15.4871 1.4099L15.6724 2.3125H67.6407C70.1483 2.3125 72.1494 3.77588 71.4453 5.25082L64.7748 19.1287C64.2931 20.126 62.7366 20.8125 60.9702 20.8125H21.7994L22.9359 24.2812H60.9949C62.6378 24.2812 63.9595 25.0545 63.9595 26.0156C63.9595 26.9768 62.6378 27.75 60.9949 27.75H20.3665C19.0571 27.75 17.8342 27.1574 17.5624 26.3408L10.1186 3.46875H3.67787C2.04112 3.46875 0.713196 2.69189 0.713196 1.73438C0.713196 0.776855 2.04112 0 3.67787 0H12.5719ZM16.5248 33.5312C16.5248 31.6162 19.1806 30.0625 22.4541 30.0625C25.7276 30.0625 28.3835 31.6162 28.3835 33.5312C28.3835 35.4463 25.7276 37 22.4541 37C19.1806 37 16.5248 35.4463 16.5248 33.5312ZM63.9595 33.5312C63.9595 35.4463 61.3037 37 58.0302 37C54.7567 37 52.1009 35.4463 52.1009 33.5312C52.1009 31.6162 54.7567 30.0625 58.0302 30.0625C61.3037 30.0625 63.9595 31.6162 63.9595 33.5312Z" fill="#585858"/>
</svg>
