<svg width="78" height="78" viewBox="0 0 78 78" fill="none" xmlns="http://www.w3.org/2000/svg">
<path d="M72.54 78H5.46C2.4492 78 0 75.5508 0 72.54V43.68C0 40.6692 2.4492 38.22 5.46 38.22H12.87C13.3068 38.22 13.65 38.5632 13.65 39C13.65 39.4368 13.3068 39.78 12.87 39.78H5.46C3.3072 39.78 1.56 41.5272 1.56 43.68V72.54C1.56 74.6928 3.3072 76.44 5.46 76.44H72.54C74.6928 76.44 76.44 74.6928 76.44 72.54V43.68C76.44 41.5272 74.6928 39.78 72.54 39.78H65.13C64.6932 39.78 64.35 39.4368 64.35 39C64.35 38.5632 64.6932 38.22 65.13 38.22H72.54C75.5508 38.22 78 40.6692 78 43.68V72.54C78 75.5508 75.5508 78 72.54 78Z" fill="#1C1D21"/>
<path d="M75.6756 76.7208C75.5352 76.7208 75.3792 76.674 75.2388 76.596L48.3444 58.7652C47.9856 58.5312 47.892 58.0476 48.126 57.6888C48.36 57.33 48.8436 57.2364 49.2024 57.4704L76.1124 75.2856C76.4712 75.5196 76.5648 76.0032 76.3308 76.362C76.1748 76.596 75.9408 76.7208 75.6756 76.7208Z" fill="#1C1D21"/>
<path d="M2.32439 76.7208C2.07479 76.7208 1.82519 76.596 1.66919 76.3776C1.43519 76.0188 1.52879 75.5352 1.88759 75.3012L28.86 57.4236C29.2188 57.1896 29.7024 57.2832 29.9364 57.642C30.1704 58.0008 30.0768 58.4844 29.718 58.7184L2.74559 76.5804C2.62079 76.674 2.46479 76.7208 2.32439 76.7208Z" fill="#1C1D21"/>
<path d="M65.13 5.46003C65.13 2.87043 63.0396 0.780029 60.45 0.780029H17.55C14.9604 0.780029 12.87 2.87043 12.87 5.46003V47.19L36.426 62.79C37.986 63.8352 40.0296 63.8352 41.5896 62.79L65.1456 47.19V5.46003H65.13Z" fill="#ECF4F7"/>
<path d="M12.87 7.332C12.4332 7.332 12.09 6.9888 12.09 6.552V5.46C12.09 2.4492 14.5392 0 17.55 0H19.812C20.2488 0 20.592 0.3432 20.592 0.78C20.592 1.2168 20.2488 1.56 19.812 1.56H17.55C15.3972 1.56 13.65 3.3072 13.65 5.46V6.552C13.65 6.9888 13.2912 7.332 12.87 7.332Z" fill="#1C1D21"/>
<path d="M12.87 22.152C12.4332 22.152 12.09 21.8088 12.09 21.372V11.31C12.09 10.8732 12.4332 10.53 12.87 10.53C13.3068 10.53 13.65 10.8732 13.65 11.31V21.372C13.65 21.7932 13.2912 22.152 12.87 22.152Z" fill="#1C1D21"/>
<path d="M25.0692 1.56H23.7744C23.3376 1.56 22.9944 1.2168 22.9944 0.78C22.9944 0.3432 23.3376 0 23.7744 0H25.0692C25.506 0 25.8492 0.3432 25.8492 0.78C25.8492 1.2168 25.4904 1.56 25.0692 1.56Z" fill="#1C1D21"/>
<path d="M65.13 7.332C64.6932 7.332 64.35 6.9888 64.35 6.552V5.46C64.35 3.3072 62.6028 1.56 60.45 1.56H58.188C57.7512 1.56 57.408 1.2168 57.408 0.78C57.408 0.3432 57.7512 0 58.188 0H60.45C63.4608 0 65.91 2.4492 65.91 5.46V6.552C65.91 6.9888 65.5668 7.332 65.13 7.332Z" fill="#1C1D21"/>
<path d="M65.13 22.152C64.6932 22.152 64.35 21.8088 64.35 21.372V11.31C64.35 10.8732 64.6932 10.53 65.13 10.53C65.5668 10.53 65.91 10.8732 65.91 11.31V21.372C65.91 21.7932 65.5668 22.152 65.13 22.152Z" fill="#1C1D21"/>
<path d="M54.2412 1.56H52.9464C52.5096 1.56 52.1664 1.2168 52.1664 0.78C52.1664 0.3432 52.5096 0 52.9464 0H54.2412C54.678 0 55.0212 0.3432 55.0212 0.78C55.0212 1.2168 54.6624 1.56 54.2412 1.56Z" fill="#1C1D21"/>
<path d="M58.7028 11.6531H19.2972C18.8604 11.6531 18.5172 11.3099 18.5172 10.8731C18.5172 10.4363 18.8604 10.0931 19.2972 10.0931H58.6872C59.124 10.0931 59.4672 10.4363 59.4672 10.8731C59.4828 11.3099 59.124 11.6531 58.7028 11.6531Z" fill="#1C1D21"/>
<path d="M58.7028 16.9103H19.2972C18.8604 16.9103 18.5172 16.5671 18.5172 16.1303C18.5172 15.6935 18.8604 15.3503 19.2972 15.3503H58.6872C59.124 15.3503 59.4672 15.6935 59.4672 16.1303C59.4828 16.5515 59.124 16.9103 58.7028 16.9103Z" fill="#1C1D21"/>
<path d="M58.7028 22.1519H19.2972C18.8604 22.1519 18.5172 21.8087 18.5172 21.3719C18.5172 20.9351 18.8604 20.5919 19.2972 20.5919H58.6872C59.124 20.5919 59.4672 20.9351 59.4672 21.3719C59.4828 21.7931 59.124 22.1519 58.7028 22.1519Z" fill="#1C1D21"/>
<path d="M58.7028 27.3935H19.2972C18.8604 27.3935 18.5172 27.0503 18.5172 26.6135C18.5172 26.1767 18.8604 25.8335 19.2972 25.8335H58.6872C59.124 25.8335 59.4672 26.1767 59.4672 26.6135C59.4828 27.0347 59.124 27.3935 58.7028 27.3935Z" fill="#1C1D21"/>
<path d="M58.7028 32.6352H19.2972C18.8604 32.6352 18.5172 32.292 18.5172 31.8552C18.5172 31.4184 18.8604 31.0752 19.2972 31.0752H58.6872C59.124 31.0752 59.4672 31.4184 59.4672 31.8552C59.4828 32.2764 59.124 32.6352 58.7028 32.6352Z" fill="#1C1D21"/>
<path d="M58.7028 37.8768H19.2972C18.8604 37.8768 18.5172 37.5336 18.5172 37.0968C18.5172 36.66 18.8604 36.3168 19.2972 36.3168H58.6872C59.124 36.3168 59.4672 36.66 59.4672 37.0968C59.4828 37.5336 59.124 37.8768 58.7028 37.8768Z" fill="#1C1D21"/>
<path d="M39 64.35C37.9548 64.35 36.894 64.0536 35.9892 63.4452L1.88759 40.8564C1.52879 40.6224 1.43519 40.1388 1.66919 39.78C1.90319 39.4212 2.38679 39.3276 2.74559 39.5616L36.8472 62.1504C38.1576 63.024 39.8424 63.024 41.1528 62.1504L75.2544 39.5616C75.6132 39.3276 76.0968 39.4212 76.3308 39.78C76.5648 40.1388 76.4712 40.6224 76.1124 40.8564L42.0108 63.4452C41.106 64.0536 40.0452 64.35 39 64.35Z" fill="#1C1D21"/>
</svg>
