<svg width="66" height="66" viewBox="0 0 66 66" fill="none" xmlns="http://www.w3.org/2000/svg">
<g clip-path="url(#clip0_11_377)">
<path fill-rule="evenodd" clip-rule="evenodd" d="M48.4677 16.5H43.3135C42.1735 16.5 41.251 17.4225 41.251 18.5625V22.688C41.251 23.826 42.1735 24.7485 43.3135 24.7485H49.2382C52.1587 24.7485 54.0601 27.2414 53.5001 30.2289L52.342 36.4058C51.8354 39.1139 49.2704 41.2509 46.5996 41.2509H43.3135C42.1735 41.2509 41.251 42.1734 41.251 43.3113V60.8445C41.251 63.6915 38.9408 65.9987 36.0938 65.9987C36.0544 66.0017 32.6878 65.9987 30.9375 65.9987C29.7995 65.9987 28.874 65.0763 28.874 63.9362C28.874 62.7982 29.7995 61.8737 30.9375 61.8737H35.0625C36.2026 61.8737 37.125 60.9513 37.125 59.8133V42.2822C37.125 39.4331 39.4332 37.1249 42.2823 37.1249H46.0095C47.083 37.1249 48.1818 36.2679 48.4677 35.1873L49.5614 31.0683C49.8807 29.8684 49.1989 28.874 48.0336 28.874H42.2822C39.4331 28.874 37.1249 26.5663 37.1249 23.7173V17.5312C37.1249 14.6822 39.4331 12.3746 42.2822 12.3746H47.4363C48.5764 12.3746 49.4988 11.4516 49.4988 10.3116V6.18595C49.4988 5.04848 48.5764 4.12552 47.4363 4.12552H39.1884C33.4923 4.12552 28.8738 8.74152 28.8738 14.437V23.7172C28.8738 26.5662 26.5667 28.8738 23.7197 28.8738H20.6742C19.5091 28.8738 18.5624 29.8684 18.5624 31.0682V35.1872C18.5624 36.2678 19.4325 37.1247 20.505 37.1247H23.7197C26.5667 37.1247 28.8738 39.4329 28.8738 42.282V47.4361C28.8738 48.5761 27.9514 49.4996 26.8134 49.4996C25.6734 49.4996 24.7509 48.5761 24.7509 47.4361V43.3112C24.7509 42.1732 23.8264 41.2508 22.6884 41.2508H19.2724C16.6016 41.2508 14.4374 39.1138 14.4374 36.4057V30.2288C14.4374 27.2412 16.805 24.7483 19.7255 24.7483H22.6883C23.8263 24.7483 24.7508 23.8259 24.7508 22.6879V13.4056C24.751 6.00123 30.7521 0 38.1563 0H48.4677C51.3168 0 53.625 2.30768 53.625 5.1547V11.3427C53.625 14.1917 51.3168 16.5 48.4677 16.5ZM26.8135 53.6247C27.9515 53.6247 28.874 54.5472 28.874 55.6872C28.874 56.8252 27.9515 57.7508 26.8135 57.7508C25.6735 57.7508 24.751 56.8252 24.751 55.6872C24.751 54.5472 25.6735 53.6247 26.8135 53.6247Z" fill="#E8E7E5"/>
</g>
<defs>
<clipPath id="clip0_11_377">
<rect width="66" height="66" fill="white"/>
</clipPath>
</defs>
</svg>
