<svg width="64" height="66" viewBox="0 0 64 66" fill="none" xmlns="http://www.w3.org/2000/svg">
<path fill-rule="evenodd" clip-rule="evenodd" d="M21.986 41.2562C23.088 41.2562 23.979 42.1771 23.979 43.3115C23.979 44.4458 23.087 45.3657 21.986 45.3657C20.886 45.3657 19.994 44.4458 19.994 43.3115C19.994 42.1771 20.887 41.2562 21.986 41.2562ZM16.145 35.3708C14.884 26.3484 20.955 17.9819 29.704 16.6815C38.453 15.3811 46.567 21.6418 47.828 30.6642C49.089 39.6866 43.018 48.0542 34.269 49.3546C34.171 49.3701 34.077 49.3701 33.98 49.3814L34.276 49.3391C33.182 49.501 32.17 48.7183 32.011 47.5912C31.854 46.464 32.613 45.4173 33.706 45.2533L33.703 45.2461C33.706 45.2461 33.708 45.2461 33.711 45.2461C40.271 44.2716 44.82 37.9985 43.875 31.2335C42.93 24.4674 36.848 19.7763 30.287 20.7508C23.73 21.7253 19.177 27.9984 20.123 34.7634C20.123 34.7665 20.123 34.7686 20.125 34.7686L20.118 34.7717C20.275 35.8988 19.516 36.9435 18.423 37.1064C17.33 37.2683 16.315 36.4867 16.156 35.3595L16.2 35.6668C16.186 35.5658 16.159 35.4709 16.145 35.3708ZM47.989 13.4114C47.989 11.7016 49.335 10.3135 50.995 10.3135C52.637 10.3135 53.968 11.6727 53.994 13.364V13.4609C53.968 15.1522 52.637 16.5113 50.995 16.5113C49.335 16.5113 47.989 15.1233 47.989 13.4114ZM58.661 60.3488C55.183 63.9726 50.357 66 42.012 66H21.986C13.641 66 8.816 63.9726 5.34 60.3488C1.908 56.7744 0 51.7852 0 43.3269V22.6751C0 14.2137 1.908 9.22762 5.34 5.65331C8.816 2.02847 13.641 0 21.986 0H42.011C50.357 0 55.182 2.02847 58.66 5.65331C58.883 5.88328 59.087 6.13594 59.293 6.3855C59.715 6.76294 59.988 7.31569 59.988 7.93753C59.988 9.07706 59.093 10 57.988 10C57.384 10 56.848 9.71747 56.482 9.28022L56.456 9.30188C56.25 9.04922 56.057 8.78728 55.829 8.55112C52.787 5.379 48.296 4.13428 40.992 4.13428H22.997C15.695 4.13428 11.213 5.379 8.171 8.55112C5.168 11.6789 4 16.3226 4 23.7239V42.2833C4 49.6877 5.168 54.319 8.171 57.4458C11.213 60.6169 15.695 61.875 22.997 61.875H40.994C48.298 61.875 52.789 60.6169 55.831 57.4458C58.834 54.319 59.99 49.6877 59.99 42.2833V23.7249C59.99 21.9223 59.918 20.2878 59.772 18.7956L59.781 18.7935C59.673 17.656 60.472 16.6392 61.577 16.5186C62.684 16.401 63.677 17.2301 63.79 18.3697C63.793 18.3996 63.79 18.4274 63.79 18.4573H63.795C63.916 19.7711 64 21.1478 64 22.6751V43.3259C64 51.7853 62.09 56.7744 58.661 60.3488Z" fill="#E8E7E5"/>
</svg>
