<svg width="33" height="37" viewBox="0 0 33 37" fill="none" xmlns="http://www.w3.org/2000/svg">
<path d="M16.6079 36.4573C15.3059 36.4573 14.0969 35.8003 13.2599 34.5593C2.93687 19.5943 2.84387 19.4483 2.84387 19.3753C1.35587 17.5138 0.565369 15.2508 0.565369 12.9513C0.565369 5.97976 7.77287 0.322266 16.6544 0.322266C25.5359 0.322266 32.7434 5.97976 32.7434 12.9513C32.7434 15.3238 31.9064 17.6233 30.3254 19.5943C30.3254 19.5943 29.7674 20.4703 20.0024 34.5593C19.1189 35.8003 17.9564 36.4573 16.6079 36.4573ZM16.6544 1.78227C8.79587 1.78227 2.42537 6.78276 2.42537 12.9513C2.42537 14.9953 3.12287 17.0028 4.51787 18.7548C4.79687 19.2293 12.1439 29.8508 14.9339 33.9023C15.9104 35.3258 17.3519 35.3258 18.3749 33.9023C21.8624 28.8653 28.4654 19.2658 28.6979 18.9373C30.1394 17.1123 30.8834 15.0683 30.8834 12.9878C30.8369 6.78276 24.4664 1.78227 16.6544 1.78227Z" fill="#CBCBCB"/>
<path d="M16.6544 20.5432C11.7254 20.5432 7.77289 17.4042 7.77289 13.5717C7.77289 9.73922 11.7254 6.56372 16.6544 6.56372C21.5834 6.56372 25.5359 9.70272 25.5359 13.5352C25.5359 17.3677 21.5369 20.5432 16.6544 20.5432ZM16.6544 8.02372C12.7949 8.02372 9.63289 10.5057 9.63289 13.5352C9.63289 16.5647 12.7949 19.0467 16.6544 19.0467C20.5139 19.0467 23.6759 16.5647 23.6759 13.5352C23.6759 10.5057 20.5139 8.02372 16.6544 8.02372Z" fill="#CBCBCB"/>
</svg>
