<svg width="48" height="48" viewBox="0 0 48 48" fill="none" xmlns="http://www.w3.org/2000/svg">
<path d="M40 32.85V37H8V32.85C8.00076 32.2932 8.15644 31.7477 8.44961 31.2744C8.74278 30.8011 9.16187 30.4187 9.66 30.17C14.5 27.76 13.94 28.46 15 21H33L33.7 25.93C34.34 30.26 40 28.94 40 32.85Z" fill="#374F68"/>
<path d="M40 35H11C10.7348 35 10.4804 34.8946 10.2929 34.7071C10.1054 34.5196 10 34.2652 10 34V32.85C10 28.95 15.67 30.23 16.3 25.93L17 21H33C34 28.33 33.39 27.7 38.34 30.17C40.31 31.15 40 33 40 35Z" fill="#BACEE0"/>
<path d="M28 29C28.0011 29.6884 27.8246 30.3654 27.4875 30.9656C27.1503 31.5657 26.664 32.0688 26.0756 32.4259C25.4871 32.7831 24.8165 32.9824 24.1285 33.0045C23.4404 33.0266 22.7584 32.8708 22.1482 32.5521C21.538 32.2334 21.0204 31.7627 20.6455 31.1854C20.2705 30.6081 20.0509 29.9438 20.0078 29.2568C19.9648 28.5698 20.0997 27.8833 20.3997 27.2637C20.6996 26.6441 21.1544 26.1124 21.72 25.72C22.3196 25.3041 23.0215 25.0601 23.7498 25.0144C24.4781 24.9688 25.205 25.1232 25.8518 25.4611C26.4986 25.7989 27.0407 26.3072 27.4194 26.931C27.798 27.5548 27.9988 28.2703 28 29Z" fill="#DAD7E5"/>
<path d="M27.28 31.2801C26.51 31.807 25.58 32.0481 24.651 31.9618C23.722 31.8755 22.8525 31.4671 22.1927 30.8074C21.533 30.1476 21.1246 29.278 21.0383 28.349C20.952 27.42 21.1931 26.4901 21.72 25.7201C22.49 25.1932 23.4199 24.9521 24.3489 25.0384C25.2779 25.1247 26.1475 25.5331 26.8073 26.1928C27.467 26.8526 27.8754 27.7221 27.9617 28.6511C28.048 29.5801 27.8069 30.5101 27.28 31.2801Z" fill="#EDEBF2"/>
<path d="M11 17V19C11 19.5304 10.7893 20.0391 10.4142 20.4142C10.0391 20.7893 9.53043 21 9 21H3C2.46957 21 1.96086 20.7893 1.58579 20.4142C1.21071 20.0391 1 19.5304 1 19V17H11Z" fill="#374F68"/>
<path d="M11 17V19H5C4.46957 19 3.96086 18.7893 3.58579 18.4142C3.21071 18.0391 3 17.5304 3 17H11Z" fill="#BACEE0"/>
<path d="M47 17.0001H37V16.2801C37.0008 15.9114 36.8811 15.5526 36.659 15.2583C36.437 14.964 36.1247 14.7504 35.77 14.6501C28.0809 12.4501 19.9291 12.4501 12.24 14.6501C11.8842 14.75 11.5707 14.9632 11.347 15.2574C11.1232 15.5515 11.0014 15.9105 11 16.2801V17.0001H0.999997C0.999997 14.9001 0.679997 13.2101 2.34 12.1101C11.28 6.14005 18.72 7.00005 28.79 7.00005C34.7941 7.00292 40.6634 8.78075 45.66 12.1101C47.32 13.2201 47 14.9001 47 17.0001Z" fill="#374F68"/>
<path d="M47 16.9999H37V16.2799C37.0008 15.9113 36.8811 15.5524 36.659 15.2582C36.437 14.9639 36.1247 14.7503 35.77 14.6499C28.0892 12.3681 19.9108 12.3681 12.23 14.6499C10.78 15.0699 14.32 14.9999 3 14.9999C2.94422 14.4424 3.03914 13.8801 3.27484 13.3717C3.51055 12.8634 3.87841 12.4276 4.34 12.1099C13.19 6.19993 20.86 6.99994 28.79 6.99994C34.7941 7.0028 40.6634 8.78064 45.66 12.1099C47.32 13.2199 47 14.8999 47 16.9999Z" fill="#BACEE0"/>
<path d="M47 17V19C47 19.5304 46.7893 20.0391 46.4142 20.4142C46.0391 20.7893 45.5304 21 45 21H39C38.4696 21 37.9609 20.7893 37.5858 20.4142C37.2107 20.0391 37 19.5304 37 19V17H47Z" fill="#374F68"/>
<path d="M24 30.0001C23.8687 29.987 23.7412 29.9481 23.6249 29.8857C23.5086 29.8233 23.4058 29.7386 23.3222 29.6365C23.2386 29.5344 23.176 29.4168 23.1378 29.2904C23.0997 29.164 23.0869 29.0314 23.1 28.9001C23.1131 28.7688 23.152 28.6413 23.2144 28.525C23.2768 28.4087 23.3615 28.3059 23.4636 28.2223C23.5657 28.1387 23.6833 28.0761 23.8097 28.038C23.9361 27.9998 24.0687 27.987 24.2 28.0001C24.4652 28.0266 24.709 28.1574 24.8778 28.3637C25.0466 28.57 25.1265 28.8349 25.1 29.1001C25.0735 29.3653 24.9427 29.6091 24.7364 29.7779C24.5301 29.9467 24.2652 30.0266 24 30.0001Z" fill="#BACEE0"/>
<path d="M40 37V39C40 39.5304 39.7893 40.0391 39.4142 40.4142C39.0391 40.7893 38.5304 41 38 41H10C9.46957 41 8.96086 40.7893 8.58579 40.4142C8.21071 40.0391 8 39.5304 8 39V37H40Z" fill="#374F68"/>
<path d="M40 37V39H12C11.4696 39 10.9609 38.7893 10.5858 38.4142C10.2107 38.0391 10 37.5304 10 37H40Z" fill="#BACEE0"/>
<path d="M19 18V21H15V18C15 17.7348 15.1054 17.4804 15.2929 17.2929C15.4804 17.1054 15.7348 17 16 17H18C18.2652 17 18.5196 17.1054 18.7071 17.2929C18.8946 17.4804 19 17.7348 19 18Z" fill="#374F68"/>
<path d="M19 18V20C18.2044 20 17.4413 19.6839 16.8787 19.1213C16.3161 18.5587 16 17.7956 16 17H18C18.2652 17 18.5196 17.1054 18.7071 17.2929C18.8946 17.4804 19 17.7348 19 18Z" fill="#BACEE0"/>
<path d="M30 17H32C32.2652 17 32.5196 17.1054 32.7071 17.2929C32.8946 17.4804 33 17.7348 33 18V21H29V18C29 17.7348 29.1054 17.4804 29.2929 17.2929C29.4804 17.1054 29.7348 17 30 17Z" fill="#374F68"/>
<path d="M33 18V20C32.2044 20 31.4413 19.6839 30.8787 19.1213C30.3161 18.5587 30 17.7956 30 17H32C32.2652 17 32.5196 17.1054 32.7071 17.2929C32.8946 17.4804 33 17.7348 33 18Z" fill="#BACEE0"/>
<path d="M47 17V19H41C40.4696 19 39.9609 18.7893 39.5858 18.4142C39.2107 18.0391 39 17.5304 39 17H47Z" fill="#BACEE0"/>
</svg>
