<svg width="71" height="38" viewBox="0 0 71 38" fill="none" xmlns="http://www.w3.org/2000/svg">
<path d="M11.8602 0.00311279C13.2681 0.00311279 14.4801 0.594968 14.7494 1.41302L14.933 2.31561H66.4377C68.923 2.31561 70.9063 3.77899 70.2085 5.25393L63.5975 19.1318C63.12 20.1291 61.5774 20.8156 59.8267 20.8156H21.0054L22.1317 24.2844H59.8512C61.4795 24.2844 62.7894 25.0576 62.7894 26.0187C62.7894 26.9799 61.4795 27.7531 59.8512 27.7531H19.5852C18.2875 27.7531 17.0755 27.1605 16.8062 26.3439L9.42877 3.47186H3.04547C1.42332 3.47186 0.107239 2.69501 0.107239 1.73749C0.107239 0.779968 1.42332 0.00311279 3.04547 0.00311279H11.8602ZM15.7778 33.5344C15.7778 31.6193 18.41 30.0656 21.6542 30.0656C24.8985 30.0656 27.5307 31.6193 27.5307 33.5344C27.5307 35.4494 24.8985 37.0031 21.6542 37.0031C18.41 37.0031 15.7778 35.4494 15.7778 33.5344ZM62.7894 33.5344C62.7894 35.4494 60.1573 37.0031 56.913 37.0031C53.6687 37.0031 51.0365 35.4494 51.0365 33.5344C51.0365 31.6193 53.6687 30.0656 56.913 30.0656C60.1573 30.0656 62.7894 31.6193 62.7894 33.5344Z" fill="#E8E7E5"/>
</svg>
