<svg width="50" height="37" viewBox="0 0 50 37" fill="none" xmlns="http://www.w3.org/2000/svg">
<path d="M8.36594 0C9.3681 0 10.2308 0.591855 10.4226 1.4099L10.5533 2.3125H47.2152C48.9843 2.3125 50.396 3.77588 49.8993 5.25082L45.1935 19.1287C44.8536 20.126 43.7556 20.8125 42.5094 20.8125H14.8757L15.6774 24.2813H42.5268C43.6859 24.2813 44.6183 25.0545 44.6183 26.0156C44.6183 26.9768 43.6859 27.75 42.5268 27.75H13.8648C12.9411 27.75 12.0783 27.1574 11.8866 26.3408L6.63523 3.46875H2.09148C0.936811 3.46875 0 2.69189 0 1.73438C0 0.776855 0.936811 0 2.09148 0H8.36594ZM11.1546 33.5313C11.1546 31.6162 13.0282 30.0625 15.3375 30.0625C17.6469 30.0625 19.5205 31.6162 19.5205 33.5313C19.5205 35.4463 17.6469 37 15.3375 37C13.0282 37 11.1546 35.4463 11.1546 33.5313ZM44.6183 33.5313C44.6183 35.4463 42.7447 37 40.4354 37C38.126 37 36.2524 35.4463 36.2524 33.5313C36.2524 31.6162 38.126 30.0625 40.4354 30.0625C42.7447 30.0625 44.6183 31.6162 44.6183 33.5313Z" fill="#E8E7E5"/>
</svg>
